<?xml version="1.0" encoding="UTF-8"?>
<svg id="_图层_1" data-name="图层_1" xmlns="http://www.w3.org/2000/svg" xmlns:xlink="http://www.w3.org/1999/xlink" viewBox="0 0 453.54 83.41">
  <defs>
    <linearGradient id="_未命名的渐变_9" data-name="未命名的渐变 9" x1="446.37" y1="13.35" x2="7.01" y2="13.35" gradientUnits="userSpaceOnUse">
      <stop offset="0" stop-color="#fff"/>
      <stop offset="1" stop-color="#f3ca1e"/>
    </linearGradient>
  </defs>
  <path d="M12.68,4.85h428.02c3.13,0,5.67,2.54,5.67,5.67v11.34H7.01v-11.34c0-3.13,2.54-5.67,5.67-5.67Z" style="fill: url(#_未命名的渐变_9);"/>
  <rect x="7.01" y="4.85" width="439.53" height="73.7" rx="5.67" ry="5.67" style="fill: none; stroke: #c1c0c0; stroke-dasharray: 3 2; stroke-miterlimit: 10;"/>
  <rect x="155.97" y="25.51" width="136.06" height="12.76" rx="2.83" ry="2.83" style="fill: #a5c3e2;"/>
  <rect x="155.97" y="62.02" width="136.06" height="12.76" rx="2.83" ry="2.83" style="fill: #a5c3e2;"/>
  <rect x="301.4" y="25.53" width="136.06" height="12.76" rx="2.83" ry="2.83" style="fill: #a5c3e2;"/>
  <rect x="301.4" y="43.76" width="136.06" height="12.76" rx="2.83" ry="2.83" style="fill: #a5c3e2;"/>
  <rect x="301.4" y="62.04" width="136.06" height="12.76" rx="2.83" ry="2.83" style="fill: #a5c3e2;"/>
  <rect x="15.27" y="25.57" width="90.96" height="12.76" rx="2.83" ry="2.83" style="fill: #a5cfa4;"/>
  <rect x="15.27" y="43.85" width="90.96" height="12.76" rx="2.83" ry="2.83" style="fill: #a5cfa4;"/>
  <rect x="15.27" y="62.14" width="90.96" height="12.76" rx="2.83" ry="2.83" style="fill: #a5cfa4;"/>
  <text transform="translate(15.27 17.92)" style="fill: #231815; font-family: Arial-BoldMT, Arial; font-size: 12px; font-weight: 700;"><tspan x="0" y="0">Data preprocessing and identification</tspan></text>
  <text transform="translate(17.18 35.12)" style="font-size: 8px;"><tspan x="0" y="0" style="fill: #f3ce46; font-family: SegoeUIEmoji, &apos;Segoe UI Emoji&apos;;">⭐</tspan><tspan x="10.98" y="0" style="fill: #231815; font-family: MicrosoftYaHeiUI, &apos;Microsoft YaHei UI&apos;;"> </tspan><tspan x="13.35" y="0" style="fill: #231815; font-family: ArialMT, Arial;">Quality control</tspan><tspan x="0" y="18" style="fill: #f3ce46; font-family: SegoeUIEmoji, &apos;Segoe UI Emoji&apos;;">⭐</tspan><tspan x="10.98" y="18" style="fill: #231815; font-family: AdobeSongStd-Light-GBpc-EUC-H, &apos;Adobe Song Std&apos;; font-weight: 300;"> </tspan><tspan x="12.64" y="18" style="fill: #231815; font-family: ArialMT, Arial;">Adapter trimming</tspan><tspan x="0" y="36" style="fill: #f3ce46; font-family: SegoeUIEmoji, &apos;Segoe UI Emoji&apos;;">⭐</tspan><tspan x="10.98" y="36" style="fill: #f3ce46; font-family: AdobeSongStd-Light-GBpc-EUC-H, &apos;Adobe Song Std&apos;; font-weight: 300;"> </tspan><tspan x="12.64" y="36" style="fill: #231815; font-family: ArialMT, Arial;">Sequence alignment</tspan></text>
  <text transform="translate(155.97 52.91)" style="fill: #113464; font-family: Arial-BoldItalicMT, Arial; font-size: 10px; font-style: italic; font-weight: 700;"><tspan x="0" y="0">TNE identification pipeline</tspan></text>
  <g>
    <g>
      <line x1="126.86" y1="50.18" x2="142.79" y2="50.18" style="fill: none; stroke: #e61e40; stroke-miterlimit: 10; stroke-width: 2px;"/>
      <polygon points="141.33 55.16 149.96 50.18 141.33 45.19 141.33 55.16" style="fill: #e61e40;"/>
    </g>
    <path d="M116.1,25.46c3.27,0,5.93,2.72,5.93,6.07v12.57c0,3.35,2.65,6.07,5.93,6.07-3.27,0-5.93,2.72-5.93,6.07v12.57c0,3.35-2.65,6.07-5.93,6.07" style="fill: none; stroke: #e61e40; stroke-miterlimit: 8; stroke-width: 2px;"/>
  </g>
  <text transform="translate(160.45 35.12)" style="fill: #231815; font-size: 8px;"><tspan x="0" y="0" style="font-family: Arial-BoldItalicMT, Arial; font-style: italic; font-weight: 700;">Step 1</tspan><tspan x="24.01" y="0" style="font-family: ArialMT, Arial;">. Detect high-density regions</tspan></text>
  <text transform="translate(305.64 35.12)" style="fill: #231815; font-size: 8px;"><tspan x="0" y="0" style="font-family: Arial-BoldItalicMT, Arial; font-style: italic; font-weight: 700;">Step 2</tspan><tspan x="24.01" y="0" style="font-family: ArialMT, Arial;">. Extract significant regions </tspan></text>
  <text transform="translate(305.64 53.17)" style="fill: #231815; font-size: 8px;"><tspan x="0" y="0" style="font-family: Arial-BoldItalicMT, Arial; font-style: italic; font-weight: 700;">Step 3</tspan><tspan x="24.01" y="0" style="font-family: ArialMT, Arial;">. Remove blacklist overlaps</tspan></text>
  <text transform="translate(305.64 71.22)" style="fill: #231815; font-size: 8px;"><tspan x="0" y="0" style="font-family: Arial-BoldItalicMT, Arial; font-style: italic; font-weight: 700;">Step 4</tspan><tspan x="24.01" y="0" style="font-family: ArialMT, Arial;">. Restrict to 150 bp</tspan></text>
  <text transform="translate(160.45 71.22)" style="fill: #231815; font-size: 8px;"><tspan x="0" y="0" style="font-family: Arial-BoldItalicMT, Arial; font-style: italic; font-weight: 700;">Step 5</tspan><tspan x="24.01" y="0" style="font-family: ArialMT, Arial;">. Filter FDR-adjusted</tspan><tspan x="97.8" y="0" style="font-family: ArialMT, Arial; letter-spacing: -.02em;"> </tspan><tspan x="99.88" y="0" style="font-family: ArialMT, Arial;">TNEs </tspan></text>
  <g>
    <line x1="292.03" y1="31.9" x2="299.25" y2="31.9" style="fill: none; stroke: #231815; stroke-miterlimit: 10; stroke-width: .75px;"/>
    <polygon points="298.81 33.4 301.4 31.9 298.81 30.41 298.81 33.4" style="fill: #231815;"/>
  </g>
  <g>
    <line x1="301.4" y1="68.43" x2="294.18" y2="68.43" style="fill: none; stroke: #231815; stroke-miterlimit: 10; stroke-width: .75px;"/>
    <polygon points="294.62 66.93 292.03 68.43 294.62 69.93 294.62 66.93" style="fill: #231815;"/>
  </g>
  <g>
    <line x1="369.43" y1="38.28" x2="369.43" y2="41.6" style="fill: none; stroke: #231815; stroke-miterlimit: 10; stroke-width: .75px;"/>
    <polygon points="367.93 41.17 369.43 43.76 370.93 41.17 367.93 41.17" style="fill: #231815;"/>
  </g>
  <g>
    <line x1="369.43" y1="56.51" x2="369.43" y2="59.83" style="fill: none; stroke: #231815; stroke-miterlimit: 10; stroke-width: .75px;"/>
    <polygon points="367.93 59.4 369.43 61.99 370.93 59.4 367.93 59.4" style="fill: #231815;"/>
  </g>
</svg>